<svg width="14" height="14" viewBox="0 0 168 168" fill="none" xmlns="http://www.w3.org/2000/svg">
  <path d="M83.996 0.277C37.747 0.277 0.253 37.77 0.253 84.019C0.253 130.27 37.747 167.76 83.996 167.76C130.25 167.76 167.74 130.27 167.74 84.019C167.74 37.77 130.25 0.277 83.996 0.277ZM122.4 121.057C120.9 123.517 117.68 124.297 115.22 122.787C95.558 110.777 70.806 108.055 41.656 114.897C38.816 115.557 36.026 113.657 35.366 110.827C34.696 107.977 36.596 105.187 39.436 104.527C71.036 97.108 98.166 100.218 120.01 113.907C122.47 115.417 123.25 118.597 121.74 121.057H122.4ZM132.63 98.258C130.73 101.238 126.88 102.188 123.89 100.288C101.49 86.358 67.196 82.548 40.346 90.798C36.976 91.808 33.396 89.908 32.386 86.538C31.386 83.168 33.276 79.588 36.646 78.578C67.196 69.228 105.3 73.458 131.02 89.458C134.01 91.358 134.96 95.278 133.06 98.258H132.63ZM133.48 74.418C106.63 58.678 61.986 57.148 36.176 65.008C32.226 66.218 27.996 63.958 26.786 60.008C25.576 56.058 27.836 51.828 31.786 50.618C61.346 41.608 110.58 43.398 141.36 61.588C144.85 63.678 146.02 68.298 143.93 71.778C141.84 75.258 137.22 76.428 133.74 74.338L133.48 74.418Z" fill="#1ED760"/>
</svg>
